<svg xmlns="http://www.w3.org/2000/svg" height="48" width="48" style=""><rect id="backgroundrect" width="100%" height="100%" x="0" y="0" fill="none" stroke="none" style="" class=""/><g class="currentLayer" style=""><title>Layer 1</title><path d="M 24 44 Q 19.9 44 16.25 42.425 Q 12.6 40.85 9.875 38.125 Q 7.15 35.4 5.575 31.75 Q 4 28.1 4 24 Q 4 19.75 5.6 16.1 Q 7.2 12.45 9.975 9.75 Q 12.75 7.05 16.475 5.525 Q 20.2 4 24.45 4 Q 28.4 4 31.95 5.325 Q 35.5 6.65 38.175 9 Q 40.85 11.35 42.425 14.575 Q 44 17.8 44 21.65 Q 44 27.05 40.85 30.175 Q 37.7 33.3 32.5 33.3 H 28.75 Q 27.85 33.3 27.2 34 Q 26.55 34.7 26.55 35.55 Q 26.55 36.9 27.275 37.85 Q 28 38.8 28 40.05 Q 28 41.95 26.95 42.975 Q 25.9 44 24 44 z M 24 24 Q 24 24 24 24 Q 24 24 24 24 Q 24 24 24 24 Q 24 24 24 24 Q 24 24 24 24 Q 24 24 24 24 Q 24 24 24 24 Q 24 24 24 24 Q 24 24 24 24 Q 24 24 24 24 Q 24 24 24 24 Q 24 24 24 24 Q 24 24 24 24 Q 24 24 24 24 z M 24 41 Q 24.55 41 24.775 40.775 Q 25 40.55 25 40.05 Q 25 39.35 24.275 38.75 Q 23.55 38.15 23.55 36.1 Q 23.55 33.8 25.05 32.05 Q 26.55 30.3 28.85 30.3 H 32.5 Q 36.3 30.3 38.65 28.075 Q 41 25.85 41 21.65 Q 41 15.05 36 11.025 Q 31 7 24.45 7 Q 17.15 7 12.075 11.925 Q 7 16.85 7 24 Q 7 31.05 11.975 36.025 Q 16.95 41 24 41 z" id="svg_1" class="" opacity="1"/><path fill="#f2c029" fill-opacity="1" stroke="none" stroke-opacity="1" stroke-width="1" stroke-dasharray="none" stroke-linejoin="miter" stroke-linecap="butt" stroke-dashoffset="" fill-rule="nonzero" opacity="1" marker-start="" marker-mid="" marker-end="" d="M9.857142999768257,22.785714864730835 C9.857142999768257,21.404499395117575 10.975927530154998,20.285714864730835 12.357142999768257,20.285714864730835 C13.738358469381517,20.285714864730835 14.857142999768257,21.404499395117575 14.857142999768257,22.785714864730835 C14.857142999768257,24.166930334344094 13.738358469381517,25.285714864730835 12.357142999768257,25.285714864730835 C10.975927530154998,25.285714864730835 9.857142999768257,24.166930334344094 9.857142999768257,22.785714864730835 z" id="svg_2" class=""/><path fill="#033e8c" fill-opacity="1" stroke="none" stroke-opacity="1" stroke-width="1" stroke-dasharray="none" stroke-linejoin="miter" stroke-linecap="butt" stroke-dashoffset="" fill-rule="nonzero" opacity="1" marker-start="" marker-mid="" marker-end="" d="M33.36734703928232,22.785714827477932 C33.36734703928232,21.404499357864673 34.48613156966906,20.285714827477932 35.86734703928232,20.285714827477932 C37.24856250889558,20.285714827477932 38.36734703928232,21.404499357864673 38.36734703928232,22.785714827477932 C38.36734703928232,24.16693029709119 37.24856250889558,25.285714827477932 35.86734703928232,25.285714827477932 C34.48613156966906,25.285714827477932 33.36734703928232,24.16693029709119 33.36734703928232,22.785714827477932 z" class="" id="svg_5"/><path fill="#044bd9" fill-opacity="1" stroke="none" stroke-opacity="1" stroke-width="1" stroke-dasharray="none" stroke-linejoin="miter" stroke-linecap="butt" stroke-dashoffset="" fill-rule="nonzero" opacity="1" marker-start="" marker-mid="" marker-end="" d="M26.83673484623432,14.295919142663479 C26.83673484623432,12.91470367305022 27.955519376621062,11.795919142663479 29.33673484623432,11.795919142663479 C30.71795031584758,11.795919142663479 31.83673484623432,12.91470367305022 31.83673484623432,14.295919142663479 C31.83673484623432,15.677134612276738 30.71795031584758,16.79591914266348 29.33673484623432,16.79591914266348 C27.955519376621062,16.79591914266348 26.83673484623432,15.677134612276738 26.83673484623432,14.295919142663479 z" class="" id="svg_4"/><path fill="#d90459" fill-opacity="1" stroke="none" stroke-opacity="1" stroke-width="1" stroke-dasharray="none" stroke-linejoin="miter" stroke-linecap="butt" stroke-dashoffset="" fill-rule="nonzero" opacity="1" marker-start="" marker-mid="" marker-end="" d="M16.142857149243355,14.295919179916382 C16.142857149243355,12.914703710303122 17.261641679630095,11.795919179916382 18.642857149243355,11.795919179916382 C20.024072618856614,11.795919179916382 21.142857149243355,12.914703710303122 21.142857149243355,14.295919179916382 C21.142857149243355,15.677134649529641 20.024072618856614,16.795919179916382 18.642857149243355,16.795919179916382 C17.261641679630095,16.795919179916382 16.142857149243355,15.677134649529641 16.142857149243355,14.295919179916382 z" class="" id="svg_3"/></g></svg>